<svg xmlns="http://www.w3.org/2000/svg" width="100" height="100" viewBox="0 0 100 100">
  <g id="Group_12" data-name="Group 12" transform="translate(-176 -335)">
    <rect id="Rectangle_5" data-name="Rectangle 5" width="100" height="100" rx="35" transform="translate(176 335)" fill="#e4ffee"/>
    <g id="github" transform="translate(201 360)">
      <path id="github-2" data-name="github" d="M25,.5a25.14,25.14,0,0,0-7.906,48.957c1.25.236,1.708-.541,1.708-1.208,0-.6-.021-2.177-.031-4.271-6.954,1.515-8.421-3.37-8.421-3.37-1.138-2.9-2.781-3.675-2.781-3.675-2.265-1.557.175-1.525.175-1.525A5.242,5.242,0,0,1,11.573,38c2.229,3.841,5.852,2.731,7.281,2.09a5.363,5.363,0,0,1,1.583-3.36C14.885,36.1,9.05,33.937,9.05,24.312a9.717,9.717,0,0,1,2.573-6.741,8.973,8.973,0,0,1,.219-6.649s2.094-.673,6.875,2.576a23.459,23.459,0,0,1,12.5,0c4.75-3.249,6.844-2.576,6.844-2.576a9.222,9.222,0,0,1,.25,6.649,9.756,9.756,0,0,1,2.563,6.741c0,9.651-5.844,11.775-11.406,12.393a6.032,6.032,0,0,1,1.688,4.649c0,3.362-.031,6.063-.031,6.879,0,.658.437,1.444,1.719,1.193A25.109,25.109,0,0,0,25,.5Z" transform="translate(0 -0.5)" fill="#439962"/>
    </g>
  </g>
</svg>
