<svg xmlns="http://www.w3.org/2000/svg" width="100" height="100" viewBox="0 0 100 100">
  <g id="Group_14" data-name="Group 14" transform="translate(-416 -335)">
    <rect id="Rectangle_8" data-name="Rectangle 8" width="100" height="100" rx="35" transform="translate(416 335)" fill="#fdeee4"/>
    <g id="top_1" transform="translate(440.835 357.5)">
      <path id="Path_11" data-name="Path 11" d="M31.359,45.365a.806.806,0,0,1-1.583-.308,2.635,2.635,0,0,1,4.446-1.352,2.607,2.607,0,0,1,.772,1.857,2.634,2.634,0,0,1-.735,1.827,2.63,2.63,0,1,1-4.532,1.824.807.807,0,1,1,1.613,0,1,1,0,0,0,.351.77,1.026,1.026,0,0,0,.671.247,1.019,1.019,0,0,0,0-2.037.805.805,0,1,1,0-1.611,1.019,1.019,0,1,0-.65-1.809,1.02,1.02,0,0,0-.354.591ZM49.621,7.357l.991,1.611,1.839.442a1.3,1.3,0,0,1,.964,1.574,1.429,1.429,0,0,1-.1.286,1.352,1.352,0,0,1-.174.256l-1.226,1.437.146,1.894,0,.027a1.305,1.305,0,0,1-1.555,1.352,1.227,1.227,0,0,1-.314-.1l-1.69-.7-1.757.725a1.3,1.3,0,0,1-1.7-.709,1.248,1.248,0,0,1-.082-.289,1.284,1.284,0,0,1-.015-.3l.146-1.894-1.226-1.437a1.3,1.3,0,0,1,.143-1.839,1.53,1.53,0,0,1,.278-.186l.064-.028a1.61,1.61,0,0,1,.253-.079l.03,0,1.76-.426.994-1.614v0a1.31,1.31,0,0,1,1.8-.429.6.6,0,0,1,.07.052,1.02,1.02,0,0,1,.174.149,1.256,1.256,0,0,1,.189.237Zm-.21,2.734L48.5,8.611l-.909,1.477v0a.792.792,0,0,1-.5.362l-1.686.408,1.1,1.285a.8.8,0,0,1,.22.615l-.134,1.733,1.6-.664a.819.819,0,0,1,.613,0l1.607.664-.137-1.733h0a.8.8,0,0,1,.189-.582l1.125-1.318-1.625-.393A.807.807,0,0,1,49.41,10.091ZM54.2,14.568a.8.8,0,0,1,1.467.655,24.274,24.274,0,0,1-1.622,3.045,6.9,6.9,0,0,0,1.357-.429,8.84,8.84,0,0,0,2.848-2,9.5,9.5,0,0,0,1.238-1.59,7.983,7.983,0,0,0,.8-1.69,5.052,5.052,0,0,0,.256-2.284,2.543,2.543,0,0,0-.732-1.5,2.371,2.371,0,0,0-1.165-.606,3.7,3.7,0,0,0-.887-.07,26.4,26.4,0,0,1-.79,3.6.8.8,0,0,1-1.546-.448,24.545,24.545,0,0,0,.741-3.377,23.6,23.6,0,0,0,.235-2.537H40.612a24.775,24.775,0,0,0,1.653,7.926c.778,2.028,2.394,5.292,4.233,6.812,1.927,1.59.646,3.468-.759,5.527a11.722,11.722,0,0,0-1.583,2.817h8.689A11.62,11.62,0,0,0,51.261,25.6c-1.4-2.058-2.687-3.937-.759-5.527a10.645,10.645,0,0,0,1.873-2.2A22.347,22.347,0,0,0,54.2,14.568Zm-1.369,5.4a9.66,9.66,0,0,1-1.3,1.34c-.8.658.092,1.958,1.061,3.38a10.925,10.925,0,0,1,1.915,3.724h2.065a.806.806,0,0,1,.805.807v4.3H72.707a.8.8,0,0,1,.808.8v3.149a.807.807,0,0,1-1.613,0V35.128H57.376V53.389H71.9V41.118a.807.807,0,0,1,1.613,0V54.2a.8.8,0,0,1-.808.8H24.293a.806.806,0,0,1-.808-.8V47.5a.807.807,0,0,1,1.613,0v5.889H39.624v-12H25.1v2.464a.807.807,0,0,1-1.613,0v-3.27a.806.806,0,0,1,.808-.8H39.624V36.614a.807.807,0,1,1,1.613,0V53.389H55.763V30.027H41.237v2.936a.807.807,0,1,1-1.613,0V29.22a.807.807,0,0,1,.808-.807h2.062a11.033,11.033,0,0,1,1.915-3.724c.973-1.422,1.857-2.722,1.064-3.38a9.493,9.493,0,0,1-1.293-1.34,7.427,7.427,0,0,1-3.214-.652,10.521,10.521,0,0,1-3.379-2.372,9.943,9.943,0,0,1-2.656-4.906A4.747,4.747,0,0,1,36.086,7.6a3.946,3.946,0,0,1,1.943-1.011,5.115,5.115,0,0,1,1.034-.11c-.034-.42-.058-.843-.07-1.273a2.666,2.666,0,0,1,.8-5.21H57.211a2.666,2.666,0,0,1,.8,5.21c-.012.429-.037.853-.07,1.273a5.107,5.107,0,0,1,1.034.11A3.948,3.948,0,0,1,60.914,7.6a4.16,4.16,0,0,1,1.217,2.439,6.627,6.627,0,0,1-.32,3.012,9.522,9.522,0,0,1-.958,2.037,11.414,11.414,0,0,1-1.439,1.854,10.431,10.431,0,0,1-3.379,2.369,7.363,7.363,0,0,1-3.208.655Zm-9.863-1.7a25.119,25.119,0,0,1-2.2-4.44,27.285,27.285,0,0,1-1.513-5.737,3.689,3.689,0,0,0-.884.07A2.37,2.37,0,0,0,37.2,8.77a3.212,3.212,0,0,0-.686,2.981,8.335,8.335,0,0,0,2.245,4.087,8.838,8.838,0,0,0,2.848,2,7.01,7.01,0,0,0,1.36.432ZM39.789,3.721H57.211a1.055,1.055,0,0,0,0-2.11H39.789a1.055,1.055,0,0,0,0,2.11ZM66.76,43.751a.8.8,0,0,1,.018,1.6c-.009,0-3.608.049-3.9-.052a.755.755,0,0,1-.491-1.178,4.141,4.141,0,0,1,.46-.667c.375-.49,1.058-1.385,2.168-2.969a5.791,5.791,0,0,0,.427-.706,1.072,1.072,0,0,0-.079-1.376,1.019,1.019,0,0,0-1.723.521.806.806,0,0,1-1.583-.307A2.635,2.635,0,0,1,66.5,37.268a2.551,2.551,0,0,1,.714,2.314,4.218,4.218,0,0,1-.332.907,6.914,6.914,0,0,1-.552.92c-.765,1.09-1.314,1.842-1.708,2.366C65.583,43.767,66.754,43.751,66.76,43.751ZM47.736,33.008a.807.807,0,0,1,0-1.614h1.528a.806.806,0,0,1,.805.807V39.33a.807.807,0,0,1-1.613,0V33.008h-.72Z" transform="translate(-23.485 0)" fill="#eb8036"/>
    </g>
  </g>
</svg>
