<svg xmlns="http://www.w3.org/2000/svg" width="100" height="100" viewBox="0 0 100 100">
  <g id="Group_13" data-name="Group 13" transform="translate(-296 -335)">
    <rect id="Rectangle_6" data-name="Rectangle 6" width="100" height="100" rx="35" transform="translate(296 335)" fill="#f4f4ff"/>
    <g id="star" transform="translate(320.8 361)">
      <path id="star-2" data-name="star" d="M11.256,48.141a2.687,2.687,0,0,1-1.565-.5,2.629,2.629,0,0,1-1.039-2.728l3.235-14.09L.915,21.305A2.621,2.621,0,0,1,.131,18.5a2.666,2.666,0,0,1,2.3-1.817l14.517-1.3L22.687,2.1a2.685,2.685,0,0,1,4.916,0l5.74,13.282,14.515,1.3a2.663,2.663,0,0,1,2.3,1.817,2.621,2.621,0,0,1-.782,2.807L38.4,30.817l3.235,14.09A2.626,2.626,0,0,1,40.6,47.635a2.692,2.692,0,0,1-2.938.126l-12.518-7.4-12.518,7.4A2.7,2.7,0,0,1,11.256,48.141ZM25.144,37.179a2.7,2.7,0,0,1,1.371.375L38.329,44.54l-3.053-13.3a2.625,2.625,0,0,1,.847-2.575l10.36-8.983L32.776,18.452a2.667,2.667,0,0,1-2.221-1.6L25.144,4.319,19.728,16.853a2.66,2.66,0,0,1-2.215,1.6L3.8,19.679l10.359,8.983a2.619,2.619,0,0,1,.847,2.577l-3.051,13.3,11.814-6.984A2.7,2.7,0,0,1,25.144,37.179ZM16.836,15.635a.006.006,0,0,1,0,0Zm16.612-.006,0,0S33.451,15.63,33.448,15.629Zm0,0" transform="translate(0 -0.492)" fill="#5856d6"/>
    </g>
  </g>
</svg>
