<svg xmlns="http://www.w3.org/2000/svg" width="100" height="100" viewBox="0 0 100 100">
  <g id="Group_9" data-name="Group 9" transform="translate(-296 -214)">
    <rect id="Rectangle_1" data-name="Rectangle 1" width="100" height="100" rx="35" transform="translate(296 214)" fill="#fdecef"/>
    <g id="subscriber_2" transform="translate(320.8 248.05)">
      <g id="Group_1" data-name="Group 1" transform="translate(0 0)">
        <path id="Path_1" data-name="Path 1" d="M43.589,106.286a5.754,5.754,0,1,0-6.6,0,9.977,9.977,0,0,0-3.4,1.988,12.913,12.913,0,0,0-4.667-2.535,7.29,7.29,0,1,0-7.539,0,13.021,13.021,0,0,0-4.617,2.505A10.058,10.058,0,0,0,13.4,106.3a5.754,5.754,0,1,0-6.6,0A10.071,10.071,0,0,0,0,115.81v.656a.043.043,0,0,0,.04.04h12.2a13.329,13.329,0,0,0-.11,1.68v.676a5.3,5.3,0,0,0,5.305,5.288H32.889a5.3,5.3,0,0,0,5.305-5.288v-.676a13.329,13.329,0,0,0-.11-1.68H50.36a.043.043,0,0,0,.04-.04v-.656A10.109,10.109,0,0,0,43.589,106.286Zm-7.459-4.7a4.158,4.158,0,1,1,4.238,4.145h-.16A4.146,4.146,0,0,1,36.13,101.584ZM19.436,99.517a5.694,5.694,0,1,1,6.023,5.666H24.8A5.692,5.692,0,0,1,19.436,99.517ZM5.914,101.584a4.158,4.158,0,1,1,4.238,4.145h-.16A4.152,4.152,0,0,1,5.914,101.584Zm6.6,13.321H1.616a8.51,8.51,0,0,1,8.4-7.585h.12a8.448,8.448,0,0,1,5.435,2.018A13.04,13.04,0,0,0,12.515,114.905Zm24.063,3.956a3.71,3.71,0,0,1-3.71,3.7H17.412a3.71,3.71,0,0,1-3.71-3.7v-.676a11.436,11.436,0,0,1,11.1-11.4c.11.01.229.01.339.01s.229,0,.339-.01a11.436,11.436,0,0,1,11.1,11.4Zm1.187-3.956a13.006,13.006,0,0,0-3.022-5.527,8.488,8.488,0,0,1,5.485-2.058h.12a8.51,8.51,0,0,1,8.4,7.585Z" transform="translate(0 -92.25)" fill="#f55768"/>
      </g>
    </g>
  </g>
</svg>
