<svg xmlns="http://www.w3.org/2000/svg" width="100" height="100" viewBox="0 0 100 100">
  <g id="Group_11" data-name="Group 11" transform="translate(-536 -214)">
    <rect id="Rectangle_4" data-name="Rectangle 4" width="100" height="100" rx="35" transform="translate(536 214)" fill="#fef6d3"/>
    <g id="Group_8" data-name="Group 8" transform="translate(28.829 -400.59)">
      <path id="Path_19" data-name="Path 19" d="M148.9,87.411a.739.739,0,0,0-.679-.086c-5.609,2.086-14.646,3.332-24.174,3.332a99.721,99.721,0,0,1-13.55-.877.739.739,0,1,0-.2,1.464,101.207,101.207,0,0,0,13.752.891c9.3,0,17.844-1.114,23.693-3.073v29.615a58.712,58.712,0,0,0-11-2.322.739.739,0,0,0-.183,1.466,53.89,53.89,0,0,1,11.669,2.592.746.746,0,0,0,1-.693v-31.7A.739.739,0,0,0,148.9,87.411Z" transform="translate(433.126 560.721)" fill="#d4a901"/>
      <path id="Path_20" data-name="Path 20" d="M34.881,116.04c-3.121-.286-6.388-.43-9.71-.43-9.3,0-17.844,1.115-23.694,3.073V89.068a50.083,50.083,0,0,0,6.991,1.717.739.739,0,0,0,.26-1.455,45.477,45.477,0,0,1-7.733-2,.746.746,0,0,0-1,.692v31.7a.746.746,0,0,0,1,.693c5.608-2.087,14.646-3.332,24.175-3.332,3.278,0,6.5.143,9.575.424a.739.739,0,1,0,.135-1.472Z" transform="translate(532 560.714)" fill="#d4a901"/>
      <path id="Path_21" data-name="Path 21" d="M179.99,172.348a.739.739,0,1,0,1.478,0,9.115,9.115,0,1,0-.564,3.164.739.739,0,1,0-1.386-.513,7.65,7.65,0,1,1,.472-2.651Z" transform="translate(384.826 492.242)" fill="#d4a901"/>
      <path id="Path_22" data-name="Path 22" d="M224.541,210.451a1.363,1.363,0,0,0-2.092,1.151v6.711a1.363,1.363,0,0,0,2.092,1.152l5.3-3.355a1.363,1.363,0,0,0,0-2.3Zm-.615,7.654v-6.294l4.969,3.147Z" transform="translate(331.423 449.851)" fill="#d4a901"/>
    </g>
  </g>
</svg>
